<svg xmlns="http://www.w3.org/2000/svg" viewBox="0 0 28.83 57.34"><defs><style>.cls-1{fill:#d9dff1;}.cls-2{fill:none;}.cls-2,.cls-5{stroke:#41406b;stroke-miterlimit:10;}.cls-3{fill:#c3cae7;}.cls-4{fill:#f4f6fb;}.cls-5{fill:#fff;}</style></defs><g id="Layer_2" data-name="Layer 2"><g id="Profile_Page" data-name="Profile Page"><path class="cls-1" d="M26.72,26l1.2-5.47a1.77,1.77,0,0,0-1.27-2.16,1.32,1.32,0,0,0,1.58-1.78L22.49,2.21a1.16,1.16,0,0,0-1.91-.41L9.36,12.43a1.32,1.32,0,0,0,.69,2.28A1.77,1.77,0,0,0,8,16.14l-1.2,5.47a1.77,1.77,0,0,0,1.27,2.16A1.78,1.78,0,0,0,6,25.2L4.8,30.67a1.79,1.79,0,0,0,1.48,2.21,1.76,1.76,0,0,0-2,1.43L.55,51.09a1.77,1.77,0,0,0,1.27,2.16L18,56.8a1.77,1.77,0,0,0,2.05-1.43l3.69-16.78a1.8,1.8,0,0,0-1.27-2.17A1.78,1.78,0,0,0,24.74,35l1.19-5.47a1.77,1.77,0,0,0-1.27-2.16A1.77,1.77,0,0,0,26.72,26Z"/><path class="cls-2" d="M26.72,26l1.2-5.47a1.77,1.77,0,0,0-1.27-2.16,1.32,1.32,0,0,0,1.58-1.78L22.49,2.21a1.16,1.16,0,0,0-1.91-.41L9.36,12.43a1.32,1.32,0,0,0,.69,2.28A1.77,1.77,0,0,0,8,16.14l-1.2,5.47a1.77,1.77,0,0,0,1.27,2.16A1.78,1.78,0,0,0,6,25.2L4.8,30.67a1.79,1.79,0,0,0,1.48,2.21,1.76,1.76,0,0,0-2,1.43L.55,51.09a1.77,1.77,0,0,0,1.27,2.16L18,56.8a1.77,1.77,0,0,0,2.05-1.43l3.69-16.78a1.8,1.8,0,0,0-1.27-2.17A1.78,1.78,0,0,0,24.74,35l1.19-5.47a1.77,1.77,0,0,0-1.27-2.16A1.77,1.77,0,0,0,26.72,26Z"/><path class="cls-3" d="M18.58,45.83l6.19-28.25a14.78,14.78,0,0,0,0-5.52s-.4-1.12-1,.35.36,2.2-.2,5.21-5,25.5-5.09,26.12S18,45.79,18.58,45.83Z"/><path class="cls-4" d="M15,11.24c-1.82.53-3.24,2.75-3.55,4.74L5.26,44.22l-.86,3.9s0,.64.85.18S11,21.68,12.13,18.61s2.4-5.77,3.23-6.18A.62.62,0,1,0,15,11.24Z"/><rect class="cls-2" x="1.71" y="34.85" width="20.86" height="19.97" rx="1.84" transform="translate(-34.26 47.09) rotate(-77.63)"/><rect class="cls-2" x="10.73" y="19.92" width="9.28" height="20.41" rx="1.84" transform="translate(-17.34 38.68) rotate(-77.63)"/><rect class="cls-2" x="12.72" y="10.86" width="9.28" height="20.41" rx="1.84" transform="translate(-6.93 33.5) rotate(-77.63)"/><path class="cls-5" d="M24.79,8.78,16,6.85c-2.33-.51-1.07-3.4-.81-4.9A1.86,1.86,0,0,1,17.35.54l8.83,1.94c2.33.5,1.07,3.4.8,4.9A1.83,1.83,0,0,1,24.79,8.78Z"/></g></g></svg>