<svg xmlns="http://www.w3.org/2000/svg" xmlns:xlink="http://www.w3.org/1999/xlink" viewBox="0 0 601.81 375.11"><defs><style>.cls-1,.cls-27,.cls-28{fill:none;}.cls-2{clip-path:url(#clip-path);}.cls-3{fill:url(#linear-gradient);}.cls-4{fill:#2b2b4d;}.cls-5{fill:#e6e8b3;}.cls-6{fill:#a5a0c2;}.cls-7{fill:#7d769f;}.cls-8{fill:#8a87aa;}.cls-9{fill:#6c6887;}.cls-10{fill:#959943;}.cls-11{fill:#94a039;}.cls-12{fill:#41406b;}.cls-13{fill:#7c8334;}.cls-14{fill:url(#linear-gradient-2);}.cls-15{fill:#62622a;}.cls-16{fill:url(#linear-gradient-3);}.cls-17{fill:url(#linear-gradient-4);}.cls-18{fill:#ad9a54;}.cls-19{fill:#a48646;}.cls-20{fill:#002e3c;}.cls-21{fill:#0b505b;}.cls-22{fill:#f69582;}.cls-23{fill:#fff;}.cls-24{fill:#f26c5d;}.cls-25{fill:#f2654b;}.cls-26{fill:#e43b36;}.cls-27,.cls-28{stroke-miterlimit:10;}.cls-27{opacity:0.2;stroke:url(#linear-gradient-5);}.cls-28{stroke:#fff;}</style><clipPath id="clip-path" transform="translate(28 22.21)"><path class="cls-1" d="M.5,78s113.89-31.38,156.89,37.19,55.22,63.35,97.64,82,10.46,26.15,30.22,40.68,31.39,3.49,36,7.56,3.91,8.6,5.81,8.81c3.82.44,13.08-2.81,13.08-2.81s9.73-5,15.25,7.51,3.92,21.65,3.92,21.65,11.92-1.6,13.52-.87,11.77-33.56,38.79-29.64,42.43-3.49,44.1-8.57,0-241,0-241H.5Z"/></clipPath><linearGradient id="linear-gradient" x1="256.32" y1="-1.12" x2="256.76" y2="158.26" gradientUnits="userSpaceOnUse"><stop offset="0" stop-color="#6eccda"/><stop offset="1" stop-color="#f5ecbd"/></linearGradient><linearGradient id="linear-gradient-2" x1="202.83" y1="129.91" x2="202.03" y2="160.69" gradientUnits="userSpaceOnUse"><stop offset="0" stop-color="#757b32"/><stop offset="1" stop-color="#62622a"/></linearGradient><linearGradient id="linear-gradient-3" x1="344.8" y1="228.95" x2="341.99" y2="154.59" gradientUnits="userSpaceOnUse"><stop offset="0" stop-color="#a48646"/><stop offset="0.51" stop-color="#ad9a54"/><stop offset="1" stop-color="#b2a95d"/></linearGradient><linearGradient id="linear-gradient-4" x1="413.16" y1="172.97" x2="470.41" y2="172.97" gradientTransform="translate(53.37 -99.48) rotate(13.67)" xlink:href="#linear-gradient-2"/><linearGradient id="linear-gradient-5" y1="140.58" x2="457" y2="140.58" gradientUnits="userSpaceOnUse"><stop offset="0" stop-color="#757b32"/><stop offset="1" stop-color="#fff"/></linearGradient></defs><g id="Layer_2" data-name="Layer 2"><g id="Layer_2-2" data-name="Layer 2"><g class="cls-2"><rect class="cls-3" x="15.46" width="482.09" height="129.89"/><path class="cls-4" d="M462.51,30.67c-1.45,1.17-10.75,2.62-10.75,2.62s-9.59,9-8.72,9S469.54,47,469.54,47Z" transform="translate(28 22.21)"/><path class="cls-5" d="M441.2,53.63H411.37l-23.63,5.42-15.5,19-22.09,6.59-21.7,10.65L311,99,277.31,85.79l-26-4.26L235.47,76.3l-23.25,4.84,94.15,27.12,29.06,7,77.1-17Z" transform="translate(28 22.21)"/><path class="cls-6" d="M347.22,115.35,340,107a5.12,5.12,0,0,0-2.35-1.53l-3.71-1.11a5.07,5.07,0,0,0-1.44-.21h-8a5,5,0,0,1-2.12-.47l-23.14-10.8a5.1,5.1,0,0,0-2.37-.46l-41.28,2.07A5,5,0,0,1,253,93.9L229.13,81.49A4.91,4.91,0,0,0,227.8,81l-25.33-5.08a5,5,0,0,1-2.56-1.37L180.37,55a5,5,0,0,0-3.55-1.47H156.45a5,5,0,0,1-3-1l-2.35-1.76a5,5,0,0,0-4.63-.74L104.71,64.31a5,5,0,0,0-3.4,4.75V79a5,5,0,0,0,3.06,4.62L227.8,135.79a5.22,5.22,0,0,0,1.46.37l59.56,5.92a5,5,0,0,0,2.11-.24l54.12-18.46A5,5,0,0,0,347.22,115.35Z" transform="translate(28 22.21)"/><path class="cls-7" d="M209.8,117.32s29.64-10.46,33.42-10.46,5.52,7.84,5.52,7.84l17.72-2.9,3.49-4.94,18.31-5.67,37.19,16.13S297.85,133,280.7,139.4s-70.9-16.27-70.9-16.27Z" transform="translate(28 22.21)"/><path class="cls-7" d="M115.24,90.26l62.08,34.58a5,5,0,0,0,3.1.59L218,120.3a5,5,0,0,0,3.53-7.6l-7.76-12.21a5,5,0,0,0-3.69-2.29l-42-4.29a5,5,0,0,0-2.88.58h0a5,5,0,0,1-5.86-.82l-20-19.6a5,5,0,0,0-5.54-1L115.6,81.38A5,5,0,0,0,115.24,90.26Z" transform="translate(28 22.21)"/><path class="cls-4" d="M100,70l.44-2a3.69,3.69,0,0,1,2.33-2.65c7.13-2.6,32.7-11.86,45.38-15.58,0,0-30.81,10.17-28.77,12.2,1.21,1.21,5.61,8.91,9,14.95,1.57,2.81-1.5,9.45-4.62,8.65L102.62,76.8a3.68,3.68,0,0,1-2.76-3.56V70.82A3.57,3.57,0,0,1,100,70Z" transform="translate(28 22.21)"/><path class="cls-6" d="M70.76,69.84l-3.22-8.46a5.3,5.3,0,0,0-1.1-1.79l-6.18-6.47-4.57-4.78a3.38,3.38,0,0,0-3-1.12L32.3,50.57a3.28,3.28,0,0,1-2.28-.5L10.45,37.53A3.34,3.34,0,0,0,8.67,37H1.46c-2.24,0-4.06,2.4-4.06,5.35v67.93c0,3.86,3,6.45,5.7,4.89l65.66-38C70.88,75.89,71.79,72.57,70.76,69.84Z" transform="translate(28 22.21)"/><path class="cls-8" d="M455.77,42.4l-15.85-4.75a3.63,3.63,0,0,0-2.09,0L420,42.88a3.69,3.69,0,0,0-1.55.91L388.51,73.37l-25.74,26.3a3.68,3.68,0,0,0,3.6,6.12l91-25.05A3.69,3.69,0,0,0,460,77l-1.64-31.27A3.68,3.68,0,0,0,455.77,42.4Z" transform="translate(28 22.21)"/><path class="cls-7" d="M350.64,107.68S378,85.88,388.12,71.94L420,42.88l-32.76,58.7Z" transform="translate(28 22.21)"/><path class="cls-9" d="M344.47,108.93l13.37-28.35a3.09,3.09,0,0,1,2.79-1.77h6.55A3.07,3.07,0,0,0,370,77.05l5.31-11.19a3.08,3.08,0,0,1,2.78-1.77h2.49a3.18,3.18,0,0,1,1.15.22l16,6.42a3.08,3.08,0,0,1,1.31,4.72l-26.36,34.9a3.1,3.1,0,0,1-2.23,1.21l-23,1.77A3.09,3.09,0,0,1,344.47,108.93Z" transform="translate(28 22.21)"/><path class="cls-10" d="M515.21,113.74s-53.43,12.94-134.84-12.84c0,0-109.28,35.8-125.14,44.18s182.1,27.11,182.1,27.11l82.39-9.9Z" transform="translate(28 22.21)"/><path class="cls-7" d="M462.51,57.41c-3.46.9-18,0-18,0l-5.81,7.84H425.9s-21.79,14.82-32,27,61.83-6.4,61.83-6.4Z" transform="translate(28 22.21)"/><path class="cls-7" d="M344,110.88s19.18-27,23.25-27H389s-26.44,27-27.31,27Z" transform="translate(28 22.21)"/><path class="cls-7" d="M-2.91,44.42A1.7,1.7,0,0,1-.37,43.06C8.34,48,37,65.31,44,69.54a.75.75,0,0,1-.18,1.36C36,73.18,5.43,84.13-3.47,87.33A1.71,1.71,0,0,1-5.74,85.6Z" transform="translate(28 22.21)"/><path class="cls-4" d="M-10.5,59.83,30.38,73.48a1.19,1.19,0,0,1,.27,2.13c-7.76,5-34.58,22.06-34.82,19.57S-10.26,68.55-12,61.24A1.2,1.2,0,0,1-10.5,59.83Z" transform="translate(28 22.21)"/><path class="cls-11" d="M489.25,69.18S252.13,135.82,132.79,189.29s150,23.1,150,23.1l216.58-49.06Z" transform="translate(28 22.21)"/><path class="cls-12" d="M465.71,65.83S434,76.88,420.09,85.3,383.2,96.43,383.2,96.43s-22.68,6-23.56,6-27,12.49-27,12.49,111.87-7.77,127.42-19S465.71,65.83,465.71,65.83Z" transform="translate(28 22.21)"/><path class="cls-13" d="M318,121.82s36.81,22.86,107.33,19-75.94,31.38-80.59,31.38-79.42-33.42-79.42-33.42S313.86,119.6,318,121.82Z" transform="translate(28 22.21)"/><path class="cls-14" d="M-3.59,105.16s109.26-27.9,205.35,10.07,193.34,42.24,206.12,40.69-73.23,107.32-73.23,107.32L17.72,192.73Z" transform="translate(28 22.21)"/><path class="cls-15" d="M-16.77,126.57s247.39,20.05,370,45S180.64,271,176,269.83-28,221-28,221Z" transform="translate(28 22.21)"/><circle class="cls-11" cx="254.3" cy="187.25" r="8.17"/><ellipse class="cls-13" cx="231.31" cy="180.36" rx="19.47" ry="16.18"/><path class="cls-16" d="M163,157.47s65.48,25.18,167.77-5.81,146.07-31.53,180.94-11.12-35.65,156-35.65,156L199.82,278.74Z" transform="translate(28 22.21)"/><ellipse class="cls-17" cx="441.78" cy="172.97" rx="28.87" ry="24.02" transform="translate(-0.36 131.49) rotate(-13.67)"/><ellipse class="cls-13" cx="411.56" cy="187.7" rx="21.26" ry="17.69" transform="translate(-4.69 124.76) rotate(-13.67)"/><path class="cls-18" d="M200.69,215s141,6.59,222.79-34.48,150.33,32.16,150.33,32.16L501.74,301s-220.46,19-221.62,17.82S200.69,215,200.69,215Z" transform="translate(28 22.21)"/><path class="cls-19" d="M245.49,277.38s179.32-34.72,233.27-63.13c65-34.25-2.3,100.93-2.3,100.93L338.87,348.6Z" transform="translate(28 22.21)"/><path class="cls-9" d="M80.29,74.16c-1.74-.38-21.64-22.72-21.64-22.72l-2,21.17Z" transform="translate(28 22.21)"/><path class="cls-20" d="M345.06,248.17c-.18-.56-.36-1.13-.51-1.7s-.36-1.37-.51-2.07l0-.09a31.35,31.35,0,0,1-.61-4.3c-.86-11.84,5.46-24.62,5.46-24.62,1.58.92,21.23,41.31,22,54.37C371.6,281.23,351.21,266.93,345.06,248.17Z" transform="translate(28 22.21)"/><path class="cls-21" d="M347.88,237.44a58.39,58.39,0,0,0-3.33,9q-.29-1-.51-2.07a56,56,0,0,1,2.88-7.42.53.53,0,0,1,.71-.26A.54.54,0,0,1,347.88,237.44Z" transform="translate(28 22.21)"/><path class="cls-20" d="M370.07,273.2s23.46-27.22,16.74-35.54c-7.41-9.18-25.53,23.7-25.53,23.7S363.51,272.25,370.07,273.2Z" transform="translate(28 22.21)"/><path class="cls-20" d="M340.51,194.79c-.63,3.25-1.36,6-1.86,7.66-.36,1.24-1.84,10.39-1.84,10.39-13.48,7.6-42.71,7.69-42.71,7.69s2.86-13.92,4.11-22.39c.35-2.34,1.9-9.07,2.68-12.28a139.9,139.9,0,0,1,4-14.24c5.28-14.85,16.64-13,16.64-13C344.15,158.87,343.11,181.43,340.51,194.79Z" transform="translate(28 22.21)"/><path class="cls-20" d="M344.74,242l-.51,1.59c-2,6.26-3.6,12.15-3.41,16,.08,1.67.2,3.66.36,5.82.07,1.07.15,2.19.24,3.34.85,11.4,2.18,25.45,2.18,25.45-16.55,10.23-47.73-2.12-47.73-2.12a86.34,86.34,0,0,0,2.84-16.67c0-.26,0-.52,0-.78,0-.45,0-.9.06-1.36s0-1.1,0-1.66v-1.51c0-1.19-.06-2.41-.13-3.65-.14-2.39-.39-4.9-.75-7.58a56.59,56.59,0,0,0-1.18-5.88c-.11-.47-.23-.94-.36-1.43,0-.16-.09-.33-.13-.5l-.33-1.21c-.1-.38-.21-.77-.32-1.16s-.27-1-.41-1.47c-3.4-12-7.76-25.73-1.46-30.65a101.38,101.38,0,0,1,8.29-5.86A59.63,59.63,0,0,1,309,207l1.26-.56,1.4-.6,13.95.63h.17c.37,0,1.32.15,2.65.36a52.86,52.86,0,0,1,7.22,1.75c5.52,1.72,11.68,4.4,13.63,7.3C352,220.05,348.12,231.37,344.74,242Z" transform="translate(28 22.21)"/><path class="cls-21" d="M323.44,237.62a1.13,1.13,0,1,1-1.18-1.08A1.13,1.13,0,0,1,323.44,237.62Z" transform="translate(28 22.21)"/><path class="cls-21" d="M323.64,246.51a1.12,1.12,0,0,1-1.08,1.17,1.13,1.13,0,1,1-.09-2.25A1.12,1.12,0,0,1,323.64,246.51Z" transform="translate(28 22.21)"/><path class="cls-21" d="M323.85,255.4a1.13,1.13,0,1,1-2.26.09,1.13,1.13,0,0,1,2.26-.09Z" transform="translate(28 22.21)"/><path class="cls-21" d="M324.05,264.29a1.13,1.13,0,1,1-2.25.09,1.13,1.13,0,0,1,2.25-.09Z" transform="translate(28 22.21)"/><path class="cls-21" d="M324.26,273.18a1.13,1.13,0,1,1-1.18-1.08A1.14,1.14,0,0,1,324.26,273.18Z" transform="translate(28 22.21)"/><path class="cls-21" d="M324.46,282.07a1.13,1.13,0,1,1-1.17-1.08A1.13,1.13,0,0,1,324.46,282.07Z" transform="translate(28 22.21)"/><path class="cls-22" d="M328.38,206.81a13.89,13.89,0,0,1-.74,3.16c-1.84,5.41-6.32,12.68-6.32,12.68l-9.69-12.28h0L309,207c1.64-.76,3.12-1.37,3.12-1.37l13.47.83S326.67,206.55,328.38,206.81Z" transform="translate(28 22.21)"/><path class="cls-23" d="M327.64,210c-1.84,5.41-6.32,12.68-6.32,12.68l-9.69-12.28h0C312,210.54,321.48,214.85,327.64,210Z" transform="translate(28 22.21)"/><path class="cls-22" d="M311.83,207.71c6.5,6.08,14.46,3,14.46,3l-.37-15.58-12-4-1.93-.64Z" transform="translate(28 22.21)"/><path class="cls-20" d="M313.93,191.21s3.06,13.85,12.26,15.4l-.27-11.43Z" transform="translate(28 22.21)"/><path class="cls-24" d="M334.34,177.52s3.87-2.39,5.73,2.33-2.43,10.74-6.84,9.76C333.23,189.61,332.6,180,334.34,177.52Z" transform="translate(28 22.21)"/><path class="cls-22" d="M338.9,185.14c-.06,1-.15,2-.28,3-.6,4.46-2,8.7-5.08,11.66-6.34,6.15-16.31.29-21.57-8.26a25.15,25.15,0,0,1-1.48-2.75h0c-.27-.57-.51-1.14-.73-1.7-.11-.3-.23-.61-.33-.91a15.88,15.88,0,0,1-.94-4.9q0-.93,0-1.8t.06-1.86c0-.39,0-.77.07-1.13a27,27,0,0,1,.5-3.67c1-4.29,3.06-6.35,6.85-8.07,2.77-1.26,7.44-1.68,11.78-1.19a12.28,12.28,0,0,1,10,7.47v0a12.31,12.31,0,0,1,.9,3.7c.1,1.19.2,2.47.26,3.8,0,.3,0,.61.05.91C339,181.3,339,183.22,338.9,185.14Z" transform="translate(28 22.21)"/><path class="cls-24" d="M318.47,186.55c0,.84,1.28,1.54,2.9,1.59s3-.6,3-1.43-1.28-1.54-2.91-1.58S318.49,185.72,318.47,186.55Z" transform="translate(28 22.21)"/><path class="cls-24" d="M338.9,185.14c-.06,1-.15,2-.28,3-1.62,0-2.91-.76-2.88-1.59s1.36-1.47,3-1.42Z" transform="translate(28 22.21)"/><path class="cls-20" d="M309.43,186.18c.1.3.21.61.33.91.22.56.46,1.13.73,1.7h0a25.15,25.15,0,0,0,1.48,2.75,5.08,5.08,0,0,0,1.6-2.49Z" transform="translate(28 22.21)"/><path class="cls-20" d="M324.88,168.45s2.4,6.85-4.08,6.47S317,180.1,313.68,182s-9.28-5.09-4.55-14.4,19.36-8.27,23.19-6c4.57,2.66,10.36,8.1,6.59,16.21C338.91,177.78,326.3,174.22,324.88,168.45Z" transform="translate(28 22.21)"/><path class="cls-20" d="M318.67,174.24s-4,2.73-2.74,6.42c2.33,6.64,2.21,10.16-.5,11.73,0,0,2-2.19.39-6-1-2.43-2.23-4.35-1.3-8A5.51,5.51,0,0,1,318.67,174.24Z" transform="translate(28 22.21)"/><path class="cls-22" d="M312.57,177.34s-4.26-2.07-5.3,2.89,3.78,9.32,8.11,9C315.38,189.25,314.69,179.44,312.57,177.34Z" transform="translate(28 22.21)"/><path class="cls-23" d="M309.32,186.72a1.87,1.87,0,0,0-.4,1.15,1.89,1.89,0,0,0,3.54.93,1.85,1.85,0,0,0,.25-.93,1.91,1.91,0,0,0-1.2-1.76.67.67,0,0,1-.27-1,2.78,2.78,0,1,1-2.52.91Z" transform="translate(28 22.21)"/><path class="cls-24" d="M313.1,185.65a.45.45,0,0,1-.44-.38,7.65,7.65,0,0,0-2.89-4.66.44.44,0,0,1-.12-.63.45.45,0,0,1,.63-.13,8.42,8.42,0,0,1,3.28,5.26.46.46,0,0,1-.37.53Z" transform="translate(28 22.21)"/><path class="cls-24" d="M309.57,183.42a.44.44,0,0,1-.39-.25.45.45,0,0,1,.19-.61,5.05,5.05,0,0,1,2.75-.58.45.45,0,0,1,.37.53.45.45,0,0,1-.53.37,4.14,4.14,0,0,0-2.16.49A.46.46,0,0,1,309.57,183.42Z" transform="translate(28 22.21)"/><path class="cls-23" d="M334.47,192.44a28.16,28.16,0,0,1-9.27-1.39s1.17,4,5.11,4.08A4.42,4.42,0,0,0,334.47,192.44Z" transform="translate(28 22.21)"/><path class="cls-20" d="M306,276.32a6.6,6.6,0,0,1-2.81-.79c-8.35-4.27-15.94-25.35-16.28-42.9-.23-12.13,6.82-16,6.82-16,7.64,7.57,11.92,25.87,15.68,41.19a13.23,13.23,0,0,1,.25,2.41l0,.44a.66.66,0,0,1,0,.14l.06.74C310.42,270.16,309.34,276.43,306,276.32Z" transform="translate(28 22.21)"/><path class="cls-21" d="M310.23,261.3a.6.6,0,0,1-.6-.55,133.19,133.19,0,0,0-5.49-27.07.61.61,0,0,1,1.15-.38,135.55,135.55,0,0,1,5.54,27.35.6.6,0,0,1-.54.65Z" transform="translate(28 22.21)"/><path class="cls-21" d="M306.4,239.92l-.14,0a.62.62,0,0,1-.45-.73,35.26,35.26,0,0,0,.92-5.39.61.61,0,0,1,1.21,0,35.43,35.43,0,0,1-.95,5.67A.62.62,0,0,1,306.4,239.92Z" transform="translate(28 22.21)"/><path class="cls-20" d="M306,276.32c-10.59-4.22-3.48-12.78-3.48-12.78a16.94,16.94,0,0,1,5.27-2.24h0c.59-.16,1.22-.33,1.91-.49.48-.11,1-.22,1.51-.32a69.83,69.83,0,0,1,12.06-1.15c12.11-.22,27.06-7.64,31.63-3.43S317.52,280.89,306,276.32Z" transform="translate(28 22.21)"/><path class="cls-21" d="M339.19,269.78c-.07,0-6.94,2.48-14.33,4.74-8.42,2.57-14.13,3.86-17,3.86a5,5,0,0,1-1.35-.14c-2.76-.74-5.6-3-7.67-4.91,0-.55,0-1.1,0-1.66,2,2,5.08,4.64,8,5.41,3.95,1.06,24.43-5.73,32-8.44a.6.6,0,0,1,.77.36A.62.62,0,0,1,339.19,269.78Z" transform="translate(28 22.21)"/><path class="cls-21" d="M310.49,261a.6.6,0,0,1-.59-.48.61.61,0,0,1,.46-.72,130,130,0,0,1,14.57-1.88,141.41,141.41,0,0,0,14.34-2,.61.61,0,1,1,.23,1.19c-.07,0-7.3,1.42-14.48,2A124.71,124.71,0,0,0,310.61,261Z" transform="translate(28 22.21)"/><path class="cls-21" d="M311.25,260.49a.6.6,0,0,1-.37.51s-.43.19-1.08.55c-.36.2-.79.45-1.26.74a15.87,15.87,0,0,0-4,3.54.57.57,0,0,1-.48.24.62.62,0,0,1-.36-.12.61.61,0,0,1-.12-.85,17,17,0,0,1,4.29-3.8h0c.75-.47,1.41-.83,1.87-1.07l0,.44a.66.66,0,0,1,0,.14C310.22,260.7,310.72,260.59,311.25,260.49Z" transform="translate(28 22.21)"/><path class="cls-21" d="M309.13,261.56a.52.52,0,0,1-.21,0,14.4,14.4,0,0,0-4.18-.47.61.61,0,1,1,0-1.21,15.21,15.21,0,0,1,4.64.55.6.6,0,0,1-.21,1.17Z" transform="translate(28 22.21)"/><path class="cls-25" d="M369.16,214.8s-1.67-21.45,29.53-18.85c23.95,2,24.19,19.06,12.63,25.88S369.16,214.8,369.16,214.8Z" transform="translate(28 22.21)"/><path class="cls-26" d="M392.05,208.34a.57.57,0,0,1-.19-1.11c.41-.14,10-3.44,16.63-.65a.57.57,0,0,1-.45,1c-6.22-2.62-15.71.65-15.8.68A.63.63,0,0,1,392.05,208.34Z" transform="translate(28 22.21)"/><path class="cls-26" d="M390.31,206.3a.54.54,0,0,1-.39-.16.56.56,0,0,1,0-.8,13.44,13.44,0,0,1,9.14-3.77h.24a.58.58,0,0,1,.56.58.57.57,0,0,1-.59.56,12.48,12.48,0,0,0-8.53,3.42A.58.58,0,0,1,390.31,206.3Z" transform="translate(28 22.21)"/><path class="cls-25" d="M356.39,263.6c-.75,6.52-1.82,18.56-2.87,31h67.4c-.2-6.54-.32-12.48-.27-16.65,0-1.43.06-2.64.12-3.61,0-.39.06-.75.09-1.06,1.05-9.78,4.73-45.91-1.18-51.45-7.32-6.87-26-13.6-26-13.6l-14,2.65s-15.72,3.41-22.71,10C348.58,228.79,358.36,246.42,356.39,263.6Z" transform="translate(28 22.21)"/><path class="cls-26" d="M396.47,294.59c.65-.28,1.3-.57,1.92-.86a95.13,95.13,0,0,0,18.06-11.05.65.65,0,1,0-.82-1,93.26,93.26,0,0,1-17.82,10.9c-1.46.68-3,1.36-4.69,2Z" transform="translate(28 22.21)"/><path class="cls-26" d="M375.29,275.91c14.64-2,25.24-13.67,25.35-13.79a.64.64,0,0,0-1-.86c-.11.13-11.49,12.65-26.76,13.6a.64.64,0,1,0,.08,1.28C373.77,276.09,374.54,276,375.29,275.91Z" transform="translate(28 22.21)"/><path class="cls-23" d="M375.46,220.34a.5.5,0,0,1,.55.53c-1.13,16.8-2.36,36.81-2.54,63.27a.5.5,0,0,1-.7.45h0a.51.51,0,0,1-.29-.45c.18-26.36,1.4-46.33,2.54-63.32a.5.5,0,0,1,.45-.47Z" transform="translate(28 22.21)"/><path class="cls-23" d="M389.72,285.07h0a.49.49,0,0,1-.49-.5c.47-30.62,2.59-63.11,2.62-63.43a.5.5,0,1,1,1,.06c0,.33-2.14,32.8-2.61,63.38A.51.51,0,0,1,389.72,285.07Z" transform="translate(28 22.21)"/><path class="cls-26" d="M412.47,256.75c.9,1.88,1.8,4,2.67,6.08.3.74.6,1.48.89,2.23,2.57,6.56,4.57,12.73,4.6,12.81a.64.64,0,0,0,0,.07c0-1.43.06-2.64.12-3.61-.84-2.46-2.13-6.1-3.61-9.85a.14.14,0,0,1,0-.06v0c-1.11-2.82-2.32-5.69-3.52-8.2a.64.64,0,0,0-.85-.29A.62.62,0,0,0,412.47,256.75Z" transform="translate(28 22.21)"/><path class="cls-26" d="M416.56,265.3a.62.62,0,0,0,.49-.24.63.63,0,0,0-.1-.89,32.14,32.14,0,0,0-5.69-3.63.63.63,0,0,0-.83.33.64.64,0,0,0,.33.84,31,31,0,0,1,5.4,3.45A.61.61,0,0,0,416.56,265.3Z" transform="translate(28 22.21)"/><path class="cls-25" d="M338.05,265l0,.61c12.34-7.17,23.08-15.94,31.21-27.32,3.74-3.56,3.35-12.32-.21-16.05l-.2-.21a9.35,9.35,0,0,0-13-.12l-9,8.55c-1.12,4.86-3,10.51-4.74,16-.18.56-.36,1.12-.53,1.68C339.58,254.7,337.85,260.89,338.05,265Z" transform="translate(28 22.21)"/><path class="cls-25" d="M432,294.59h0c.89-.55,1.77-1.12,2.66-1.73.45-.3.9-.61,1.36-.94l.34-.25.35-.26.37-.28.19-.15.11-.09.07-.05.09-.08a8.74,8.74,0,0,0,3.06-6.84v-.72c-.11-1.47-.28-2.85-.47-4.18s-.42-2.61-.66-3.87c-.49-2.51-1.05-4.94-1.65-7.32-1.2-4.78-2.54-9.4-4-14s-2.92-9.1-4.48-13.59c-.77-2.24-1.57-4.48-2.37-6.72l-1.23-3.35-.62-1.68-.65-1.71A9.31,9.31,0,1,0,407,233.37l0,.1.59,1.56.6,1.61,1.18,3.23q1.17,3.23,2.29,6.48c1.51,4.33,2.95,8.68,4.3,13s2.61,8.68,3.68,13c.54,2.14,1,4.27,1.43,6.34.1.51.19,1,.28,1.52-1.24,1-2.53,2-3.85,3a104.09,104.09,0,0,1-8.8,5.76c-.38.23-.77.44-1.15.66l-1.16.65-1.17.64-1.18.63-1.18.61-1.19.6-1.21.59-.6.29-.61.28c-.5.24-1,.46-1.52.69Z" transform="translate(28 22.21)"/><path class="cls-22" d="M421.21,228.19s-4.33,3.4-3.89,5.33,6.75-2.45,6.75-2.45-2.8,2.62-2.51,3.56c.64,2.13,5-1.15,6.66-3s-.27-3.28-1.17-2.76c0,0-.4-2.86-2.58-3.32,0,0,.42-2.38-2.45-3.26a2.65,2.65,0,0,0-2.78-2.95s-2.5-1.7-3.78-.78l1.84,1.92a39,39,0,0,0-5.78,4.45c-1.35,1.57.57,4,6.94-.36,0,0-5.14,3.82-5.3,6.17S417.76,230.48,421.21,228.19Z" transform="translate(28 22.21)"/><path class="cls-22" d="M393.87,210.89c-10.12,6.05-16,1.75-16,1.75l.17-15.83,13.1-4.18,2.1-.67Z" transform="translate(28 22.21)"/><path class="cls-20" d="M391.15,192.63s-3.15,14.11-13.23,15.79l.13-11.61Z" transform="translate(28 22.21)"/><path class="cls-24" d="M369.58,178.6s-3.91-2.46-5.84,2.31,2.35,10.94,6.83,10C370.57,190.9,371.32,181.09,369.58,178.6Z" transform="translate(28 22.21)"/><path class="cls-22" d="M395.8,182.7a17.1,17.1,0,0,1-1.35,5.89c-.23.57-.48,1.15-.76,1.72h0c-4.8,10.06-16.67,20.55-23.53,12.72-3-3.39-4.38-8.41-4.94-13.56-.12-1-.2-2-.25-3.05a73.93,73.93,0,0,1,.29-10.67,12.48,12.48,0,0,1,11.17-11.26c4.41-.45,9.15,0,11.95,1.34,4.8,2.23,6.9,5,7.35,12,0,.37,0,.75,0,1.14C395.83,180.12,395.83,181.35,395.8,182.7Z" transform="translate(28 22.21)"/><path class="cls-23" d="M369.39,195a27.51,27.51,0,0,0,9.07-1.45s-1.11,3.89-5,4A4.34,4.34,0,0,1,369.39,195Z" transform="translate(28 22.21)"/><path class="cls-20" d="M388.22,162c6.5-.23,12.22,7.68,9.49,18.94A40.14,40.14,0,0,1,393,192.45h0a1,1,0,0,1-.87-1.28c1.1-2.87,1.54-5.59-.74-5.61-.46,0-1.9,1.21-2.75.08a2.49,2.49,0,0,1,0-1.24,8,8,0,0,0-1.66-6,2.79,2.79,0,0,1-.19-2.63c1.19-4-3.91-4.78-5.93-4.18-4.3,1.27-5.7,3.54-11.91.86-2.17-.93-3.36,1.64-3.36,1.64s-6-7.36-4-13.49,6.66-.87,6.66-.87-2-4.08.92-4.26,5.31,3.29,5.31,3.29-1.06-3.08,1.64-2.61S384,162.11,388.22,162Z" transform="translate(28 22.21)"/><path class="cls-22" d="M392.85,180.28a3.33,3.33,0,0,1,3.71-1.94c1.09.24,2.2,1.09,2.64,3.33,1,5.06-4.35,10.31-8.58,8.54C390.62,190.21,391.35,183.69,392.85,180.28Z" transform="translate(28 22.21)"/><path class="cls-24" d="M393.5,187.22a.47.47,0,0,0,.46-.39,7.92,7.92,0,0,1,3-4.78.48.48,0,0,0,.14-.66.49.49,0,0,0-.66-.13,8.72,8.72,0,0,0-3.44,5.4.47.47,0,0,0,.37.55Z" transform="translate(28 22.21)"/><path class="cls-24" d="M397.16,185a.45.45,0,0,0,.41-.25.47.47,0,0,0-.19-.64,5.29,5.29,0,0,0-2.83-.62.47.47,0,0,0-.39.54.48.48,0,0,0,.55.39,4.33,4.33,0,0,1,2.22.53A.5.5,0,0,0,397.16,185Z" transform="translate(28 22.21)"/></g><path class="cls-27" d="M.5,78s113.89-31.38,156.89,37.19,55.22,63.35,97.64,82,10.46,26.15,30.22,40.68,31.39,3.49,36,7.56,3.91,8.6,5.81,8.81c3.82.44,13.08-2.81,13.08-2.81s9.73-5,15.25,7.51,3.92,21.65,3.92,21.65,11.92-1.6,13.52-.87,11.77-33.56,38.79-29.64,42.43-3.49,44.1-8.57,0-241,0-241H.5Z" transform="translate(28 22.21)"/></g><g id="Landign_Page_Factory" data-name="Landign Page Factory"><path class="cls-6" d="M318.67,342.43l0-.44,6.66-90.28s1.84-2.51,7.26-2.42,7.07,1.94,7.56,2.13,11,91,11,91H318.67" transform="translate(28 22.21)"/><path class="cls-6" d="M359.3,280.58a14.77,14.77,0,0,1,14.53,0l7.74,61.36H356.49Z" transform="translate(28 22.21)"/><path class="cls-28" d="M324.19,257a33.44,33.44,0,0,1,17.54,0" transform="translate(28 22.21)"/><path class="cls-28" d="M324.19,260.67a33.44,33.44,0,0,1,17.54,0" transform="translate(28 22.21)"/><path class="cls-28" d="M355.25,292.5s11.54-3.57,23.32,0" transform="translate(28 22.21)"/><path class="cls-28" d="M355.25,297.44s11.54-3.57,23.32,0" transform="translate(28 22.21)"/><path class="cls-9" d="M290.84,348.9v-5.17a4,4,0,0,1,2.1-3.52l51.18-27.47a4,4,0,0,1,1.89-.47h8.54a4,4,0,0,1,4,4V348.9a4,4,0,0,1-4,4H294.83A4,4,0,0,1,290.84,348.9Z" transform="translate(28 22.21)"/><rect class="cls-12" x="373.01" y="350.01" width="54.16" height="25.09" rx="8.06"/></g></g></svg>