<svg xmlns="http://www.w3.org/2000/svg" viewBox="0 0 285.94 311.95"><defs><style>.cls-1{fill:#a4a4c3;}.cls-2{fill:#0b505b;}.cls-3{fill:#7c8334;}.cls-4{fill:#66682c;}.cls-5{fill:#cbcc91;}.cls-6{fill:#061a20;}.cls-7{fill:#002e3c;}.cls-8{fill:#f69582;}.cls-9{fill:#ad9a54;}.cls-10{fill:#a48646;}.cls-11{fill:#fff;}.cls-12{fill:#e6e8b3;}.cls-13{fill:#f26c5d;}.cls-14{fill:#afaf84;}</style></defs><g id="Layer_2" data-name="Layer 2"><g id="CF_Results_Human" data-name="CF Results Human"><ellipse class="cls-1" cx="139.55" cy="302.7" rx="139.55" ry="9.25"/><polygon class="cls-2" points="143.93 300.17 166.92 213.37 172.63 214.89 150.04 300.17 143.93 300.17"/><polygon class="cls-2" points="245.5 300.17 222.91 214.89 228.62 213.37 251.61 300.17 245.5 300.17"/><rect class="cls-2" x="199.44" y="208.41" width="4.04" height="76.52" transform="translate(-95.31 362.27) rotate(-72.04)"/><rect class="cls-2" x="157.5" y="244.65" width="76.52" height="4.04" transform="translate(-66.51 72.36) rotate(-17.95)"/><path class="cls-3" d="M201.67,67.34c44.55-14.06,85.67,18.56,84.23,66.19-.92,30.8-9.68,67-41.72,85.8-62.48,36.68-115,6.72-112.38-43.12S168,81.56,194.8,69.9A68.72,68.72,0,0,1,201.67,67.34Z"/><path class="cls-4" d="M191.05,88.52c26.85-14.21,55.2-4,62.77,21.78a81.17,81.17,0,0,1,2.12,34.24c-5.66,41.16-27.69,57-60.17,60.56s-50.46-9.18-52-29.75,17.21-67.62,42.5-84C187.88,90.29,189.47,89.36,191.05,88.52Z"/><path class="cls-5" d="M144.46,125.82c-1.52-4.62-3-9.26-4.63-13.85,8.25-.37,17-1.77,20.65-5.7,7.74-8.35,19.85-37.45,19.85-37.45s-.05,43.33-13.6,52.26C160.83,125,152.26,126,144.46,125.82Z"/><path class="cls-6" d="M80.57,149.7a13.4,13.4,0,0,1,9.11-3.29h2.1c11.42.12,63.33,8.73,73.2,12.06a32.7,32.7,0,0,1,4.59,11,20.85,20.85,0,0,1-23.46,24.83c-17.45-2.53-38.17-5.13-40.18-6.38-1.41-.87-2.22-1.42-2.29-1.47s.26.72.64,1.91c1.92,5.92,7.34,24.76,6.16,44.84a99.22,99.22,0,0,0,3.78,31.52L98,271.48S58.43,169.45,80.57,149.7Z"/><path class="cls-7" d="M92.77,175.54c4.38,2.64,9,9.08,11.51,12.84-.38-1.19-.62-1.85-.64-1.91s.88.6,2.29,1.47c-.62-1-1.41-2.13-2.31-3.39-.48-.66-1-1.35-1.53-2-2.46-3.2-5.49-6.55-8.49-8.34a.8.8,0,1,0-.83,1.37Z"/><path class="cls-7" d="M102.77,185.57a.81.81,0,0,0,.79-.65c.54-2.76-.58-8.68-.63-8.93a.8.8,0,1,0-1.57.3c0,.06,1.1,5.87.62,8.32a.8.8,0,0,0,.63.94Z"/><path class="cls-8" d="M98.87,266.12l2,16.1c4.91,2.49,10.39,2.22,16.19.3L112.9,263Z"/><path class="cls-7" d="M114.38,259.57c2.37,3.75,2.6,6.72,2.69,10.14A188.45,188.45,0,0,1,97,276l-3.17-8.63S101.3,264.27,114.38,259.57Z"/><path class="cls-9" d="M64.86,300.82c.06.3.12.64.2,1s.1.45.16.66a5.17,5.17,0,0,0,.81,2c.76.73,17.63.51,17.63.51l18.68,0c2.71.07,12.29-.07,16.63-.14a2.29,2.29,0,0,0,2.27-2.2c0-.26,0-.55,0-.85.14-3.07.31-7.59.28-9.07-.06-2.32-2-6.79-2-6.79s3.66-3.71,1.16-5.05-3.6-.34-3.6-.34-6,3.17-9,2.8-6.06-3.46-7-5.78-4.93-.63-5.22,1.52A2.76,2.76,0,0,1,94.56,281c-.74.57-1.77,1.14-3,2.13l-.63.51c-.29.25-.6.53-.92.84a17.64,17.64,0,0,1-1.92,1.59c-.14.1-.29.21-.45.31-.77.54-1.61,1.06-2.47,1.56-3,1.74-6.3,3.25-8.28,4.36-2.52,1.42-8.7,5.13-11.18,6.62A1.77,1.77,0,0,0,64.86,300.82Z"/><path class="cls-10" d="M65.22,302.46a5.17,5.17,0,0,0,.81,2c.76.73,17.63.51,17.63.51l18.68,0c2.71.07,12.29-.07,16.63-.14a2.29,2.29,0,0,0,2.27-2.2c0-.26,0-.55,0-.85C103.62,302.88,84.75,303,65.22,302.46Z"/><path class="cls-11" d="M97.48,291.18a1,1,0,0,0,1.13-1.42c-.09-.16-2.21-3.87-5.07-5.32a6.77,6.77,0,0,0-6.93.3,1,1,0,1,0,1.17,1.57,4.78,4.78,0,0,1,4.87-.13c2.34,1.19,4.24,4.51,4.26,4.54A1,1,0,0,0,97.48,291.18Z"/><path class="cls-11" d="M100.4,288.43a1,1,0,0,0,.77-.09,1,1,0,0,0,.37-1.33c-.09-.16-2.21-3.87-5.08-5.32a6.74,6.74,0,0,0-6.92.3,1,1,0,0,0,1.16,1.58,4.8,4.8,0,0,1,4.87-.14c2.35,1.19,4.25,4.51,4.26,4.55A1,1,0,0,0,100.4,288.43Z"/><path class="cls-11" d="M93.52,293.4a1,1,0,0,0,.77-.08,1,1,0,0,0,.37-1.34c-.09-.15-2.22-3.87-5.08-5.32a6.77,6.77,0,0,0-6.93.3,1,1,0,0,0,1.17,1.58,4.8,4.8,0,0,1,4.87-.14C91,289.59,92.93,292.91,93,293A1,1,0,0,0,93.52,293.4Z"/><path class="cls-7" d="M53.08,261.12l58-66.73,63-35.17s28.68,2.31,38.26,12.13c0,0,5.19,28.83-16.5,33.75-24.56,5.58-59.73,8.6-66.71,10.22l-1.36.31-.18.31c-1.52,2.5-12.25,19.78-25.85,32.45-6,5.56-29.39,18.62-37.2,23.73C60.52,268.62,56.76,264.92,53.08,261.12Z"/><path class="cls-2" d="M117.51,205.31c3.61,2.17,7.4,6.92,10,10.63l.18-.31,1.36-.31c-.23-.33-.46-.66-.71-1-.48-.66-1-1.35-1.53-2-2.46-3.19-5.49-6.54-8.48-8.34a.81.81,0,1,0-.83,1.38Z"/><path class="cls-2" d="M127.5,215.33a.79.79,0,0,0,.79-.65c.54-2.75-.57-8.67-.62-8.92a.8.8,0,0,0-1.58.3c0,.06,1.1,5.86.62,8.31a.82.82,0,0,0,.64.95Z"/><path class="cls-12" d="M247,73.14c-1.94,9.09-13.08,33.2-20.08,50.52-.09.24-.19.47-.28.7-2,5.07-3.69,9.51-4.62,12.77-.35,1.24-.69,2.46-1,3.67q-.9,3.38-1.66,6.61c-.12.52-.25,1-.36,1.56a156.37,156.37,0,0,0-3.69,23c-.24,3.5-2.28,5.47-5.79,5.55-7.63.16-23,.23-30.91-4.44-11.79-7-12-8.49-27.15-16.46-10.77-5.68,9.32-9.39,20.15-50.32,2.87-10.85,6.14-29.86,7.67-35.75S203,57.15,203,57.15l15.48-2.64s20,9.19,27.41,14.3h0A31.55,31.55,0,0,1,247,73.14Z"/><path class="cls-8" d="M219.11,56.38c-9.69,9.47-17.4,6.23-17.4,6.23l-4-17.74L211.2,36.7l2.17-1.31Z"/><path class="cls-7" d="M211.2,36.7s.24,16.61-10.57,21.19l-3-13Z"/><path class="cls-13" d="M183.34,26.77s-5-1.71-5.91,4.14,5.55,11.61,10.31,9.35C187.74,40.26,186,29.09,183.34,26.77Z"/><path class="cls-8" d="M213.76,24.36a20.09,20.09,0,0,1,.06,7c-.11.69-.24,1.4-.39,2.12h0c-2.69,12.53-13.16,27.42-22.92,20.5-4.22-3-7.13-8.24-9.14-13.84-.4-1.11-.76-2.23-1.09-3.35a85.32,85.32,0,0,1-2.53-12,14.35,14.35,0,0,1,9.48-15.57c4.82-1.68,10.24-2.41,13.72-1.7,6,1.22,9.05,3.72,11.42,11.47.13.41.25.83.37,1.26C213.09,21.46,213.43,22.84,213.76,24.36Z"/><path class="cls-11" d="M187.52,45.19a31.74,31.74,0,0,0,9.75-4s-.21,4.64-4.48,5.85A5,5,0,0,1,187.52,45.19Z"/><path class="cls-7" d="M199.75,3.19c7.2-2,15.7,5.32,15.66,18.64A45.81,45.81,0,0,1,213.17,36h0a1.07,1.07,0,0,1-1.3-1.19c.46-3.51.22-6.66-2.32-6.08-.52.12-1.81,1.86-3.06.83a2.79,2.79,0,0,1-.36-1.38A9.24,9.24,0,0,0,202.68,22c-.59-.46-1-1.33-.91-2.9.24-4.84-5.65-4.3-7.75-3.09-4.47,2.58-5.43,5.48-13.09,4.15-2.67-.47-3.32,2.73-3.32,2.73s-8.64-6.64-8.11-14,7.21-2.74,7.21-2.74-3.3-4-.11-5,6.82,2.25,6.82,2.25S181.41.2,184.56,0,195.1,4.47,199.75,3.19Z"/><path class="cls-8" d="M209.81,22.44a3.81,3.81,0,0,1,3.63-3.16c1.28,0,2.75.63,3.85,3,2.47,5.38-2.12,12.68-7.32,11.83C210,34.13,209,26.65,209.81,22.44Z"/><path class="cls-13" d="M212.39,30a.55.55,0,0,0,.41-.55,9.11,9.11,0,0,1,2.11-6.16.54.54,0,0,0,0-.77.56.56,0,0,0-.77,0,10,10,0,0,0-2.41,7,.55.55,0,0,0,.57.52Z"/><path class="cls-13" d="M215.88,26.51a.54.54,0,0,0,0-1.05,6.06,6.06,0,0,0-3.34.06.53.53,0,0,0-.29.71.56.56,0,0,0,.72.29,4.86,4.86,0,0,1,2.63,0A.5.5,0,0,0,215.88,26.51Z"/><path class="cls-14" d="M200.81,71.69a22.19,22.19,0,0,1-3-.21.7.7,0,0,1-.6-.78.71.71,0,0,1,.79-.59c12.93,1.76,23.6-9.44,23.7-9.56a.69.69,0,0,1,1,0,.69.69,0,0,1,0,1C222.28,62,213,71.69,200.81,71.69Z"/><path class="cls-14" d="M202.42,77.3a.7.7,0,0,1,0-1.39,22,22,0,0,0,13.87-5.29.69.69,0,0,1,1,0,.69.69,0,0,1,0,1A23.08,23.08,0,0,1,202.42,77.3Z"/><path class="cls-14" d="M188.79,166.21a.7.7,0,0,1-.63-.4c-8.71-18.55-23.47-20.47-23.62-20.49a.69.69,0,1,1,.16-1.38c.15,0,15.69,2,24.72,21.28a.71.71,0,0,1-.34.93A.72.72,0,0,1,188.79,166.21Z"/><path class="cls-14" d="M190.49,110.05a24.47,24.47,0,0,1-5.57-.63.69.69,0,0,1-.52-.83.69.69,0,0,1,.83-.52c14.77,3.44,28.81-9.45,29-9.58a.69.69,0,0,1,1,0,.71.71,0,0,1,0,1C214.61,100,203.65,110.05,190.49,110.05Z"/><path class="cls-8" d="M52,262.41,41,274.54c2.11,5.09,6.45,8.45,12.11,10.76l11.33-14.38Z"/><path class="cls-2" d="M68.59,272.79c-2.19,3.87-5.19,5.84-8.16,7.54A169.66,169.66,0,0,1,44.1,264.8l6.58-7.07S58.27,263.48,68.59,272.79Z"/><path class="cls-9" d="M1.51,265.25c-.16.27-.32.57-.49.88l-.31.6A5.3,5.3,0,0,0,0,268.81c.11,1,13.07,11.86,13.07,11.86l14.2,12.13c2,1.81,9.39,7.93,12.73,10.7a2.3,2.3,0,0,0,3.15-.2l.58-.62c2.1-2.25,5.17-5.57,6.11-6.72,1.46-1.8,2.87-6.48,2.87-6.48s5.19-.44,4.16-3.07-2.51-2.61-2.51-2.61-6.59-1.47-8.65-3.71-2.36-6.57-1.6-9-3.34-3.69-5-2.25a2.74,2.74,0,0,1-2.21.65c-.93,0-2.08-.28-3.68-.35h-.81c-.39,0-.8,0-1.25,0a17.56,17.56,0,0,1-2.49-.05l-.54,0c-.94-.09-1.91-.24-2.9-.42-3.41-.64-6.89-1.63-9.12-2.07-2.84-.56-9.95-1.76-12.8-2.25A1.79,1.79,0,0,0,1.51,265.25Z"/><path class="cls-10" d="M.71,266.73A5.3,5.3,0,0,0,0,268.81c.11,1,13.07,11.86,13.07,11.86l14.2,12.13c2,1.81,9.39,7.93,12.73,10.7a2.3,2.3,0,0,0,3.15-.2l.58-.62C29.62,292,15.23,279.82.71,266.73Z"/><path class="cls-11" d="M32.56,279.14a1,1,0,0,0,.64.43,1,1,0,0,0,1.15-.77c0-.18.83-4.38-.4-7.35a6.75,6.75,0,0,0-5.46-4.27,1,1,0,0,0-.14,1.95,4.82,4.82,0,0,1,3.79,3.07c1,2.42.29,6.18.29,6.22A1,1,0,0,0,32.56,279.14Z"/><path class="cls-11" d="M36.57,279a1,1,0,0,0,.63.43,1,1,0,0,0,1.15-.77c0-.18.84-4.37-.39-7.34A6.73,6.73,0,0,0,32.5,267a1,1,0,1,0-.14,1.95A4.8,4.8,0,0,1,36.15,272c1,2.43.29,6.18.28,6.22A1,1,0,0,0,36.57,279Z"/><path class="cls-11" d="M28.11,278.25a1,1,0,0,0,.63.43,1,1,0,0,0,1.15-.77c0-.17.84-4.37-.39-7.34A6.74,6.74,0,0,0,24,266.3a1,1,0,1,0-.14,1.95,4.82,4.82,0,0,1,3.79,3.07c1,2.43.29,6.18.28,6.22A1,1,0,0,0,28.11,278.25Z"/><polygon class="cls-11" points="171.38 143.32 173.08 142.16 162.03 100.08 131.88 101.09 118.63 95.48 117.5 96.64 131.72 104.09 160.34 102.88 171.38 143.32"/><polygon class="cls-5" points="160.83 102.11 171.52 143.8 146.8 145.47 130.81 102.73 160.83 102.11"/><path class="cls-11" d="M140.38,111.32l1.86,5a.54.54,0,0,0,.5.35h13.69a.54.54,0,0,0,.52-.7l-1.48-5a.55.55,0,0,0-.52-.39H140.89A.54.54,0,0,0,140.38,111.32Z"/><polygon class="cls-14" points="146.8 145.47 132.22 137.05 117.07 96.45 130.81 102.73 146.8 145.47"/><path class="cls-8" d="M125.18,117.84c.85-.09,5.54-2.33,4.35-3.55-1-1-5.63-.32-5.63-.32a10.27,10.27,0,0,1-.55-1.26l-.18-.34-1.43-3.59a8.07,8.07,0,0,0-2,1c-1.73,1.26,0,5.59,0,5.59s-2.14,1.71-1.45,3.47a2.49,2.49,0,0,0,2.76,1.35s-1.78,1.65-.63,3,3.17.12,3.17.12-1.62,2.79-.45,3.59a3.33,3.33,0,0,0,2.64.33s-1.21,2,.82,2.64,4.41-1,5.78-2.06.47-2.15-3.92-1.25c0,0,4.24-2.23,4.39-3.06.36-2-3.83-2.15-6.37-1.64,2-.52,6.81-1.88,6-3.74C131.94,116.52,126,117.75,125.18,117.84Z"/><path class="cls-12" d="M229.44,97.31s0-26.29,16.41-28.5l1.58,1.92h0a33.09,33.09,0,0,1,1.26,4.6c1.56,7.37,3.41,23.65-1.9,49.53-4.16,20.23-12.29,24-25.82,22.61-5.21-.53-11.21-1.84-18.1-3.27-22.75-4.72-26.53-8.49-26.53-8.49l.72-10.55s17.48,3.89,26.13,3.55a163.65,163.65,0,0,1,21.46.82S229.34,109,229.44,97.31Z"/><path class="cls-14" d="M224,129.6h-.1c-4.68-.59-10.58-.79-16.29-1-2.09-.07-4.26-.14-6.29-.24-5.54-.25-22.11-2-22.27-2a.79.79,0,1,1,.16-1.58c.16,0,16.69,1.71,22.18,2,2,.09,4.19.17,6.28.24,5.45.19,11.08.38,15.7.91.81-4,4.74-24.17,4.63-35.07a.79.79,0,0,1,.78-.8.81.81,0,0,1,.8.79c.13,12.25-4.76,35.88-4.81,36.12A.78.78,0,0,1,224,129.6Z"/><path class="cls-14" d="M227.44,135.35a.79.79,0,0,1-.68-.39l-3.4-5.68a.8.8,0,0,1,.28-1.09.79.79,0,0,1,1.08.28l3.4,5.68a.81.81,0,0,1-.27,1.09A.87.87,0,0,1,227.44,135.35Z"/><path class="cls-14" d="M222.48,136.37a.77.77,0,0,1-.32-.71l.6-6.59a.79.79,0,1,1,1.58.14l-.6,6.6a.79.79,0,0,1-.86.71A.78.78,0,0,1,222.48,136.37Z"/><path class="cls-14" d="M228.4,101.33a.79.79,0,0,1-.68-.39l-3.39-5.68a.79.79,0,0,1,.27-1.09.8.8,0,0,1,1.09.28l3.39,5.68a.8.8,0,0,1-.27,1.09A.87.87,0,0,1,228.4,101.33Z"/><path class="cls-14" d="M219.37,147.41c-.12.52-.25,1-.36,1.56a141.83,141.83,0,0,1-43-11.17.79.79,0,1,1,.68-1.43A140,140,0,0,0,219.37,147.41Z"/><path class="cls-8" d="M155.64,134.71a7.89,7.89,0,0,0,3.23,0s-.42.19-4-.58-7.84-6.88-5.53-6.11,4.65,3.21,6.91,3.37a12,12,0,0,1-2.15-1.26c-4.92-4.22-6.24-8.22-4.89-8.28s1.93,1,3.73,2.83,3,3.16,5.29,3.15c.44,0,0-.32,0-.32-4.6-1.29-8.1-8.11-4.77-7.73,1.33.16,4.65,5.54,9.38,5.09,4-.37,3.61-3.82,3.61-3.82-1.52-4.4-2.93-7.9-1.49-8.81,1.89-1.19,2.9,3.62,5.73,6.32a97.48,97.48,0,0,1,7,7.07,50.91,50.91,0,0,1-.92,9.93,2.76,2.76,0,0,1-.39.18c-2.19.78-8.57.19-10.89,1.41s-7.2.13-9.83,0-5.62-3.52-5-3.9S152.79,134.4,155.64,134.71Z"/></g></g></svg>