<svg xmlns="http://www.w3.org/2000/svg" xmlns:xlink="http://www.w3.org/1999/xlink" viewBox="0 0 238.23 107.61"><defs><style>.cls-1{fill:none;}.cls-2{fill:#383838;}.cls-3{fill:#555e65;}.cls-4{fill:#aeb8c4;}.cls-5{clip-path:url(#clip-path);}.cls-6{fill:#f6d64c;}.cls-7{fill:url(#linear-gradient);}.cls-8{fill:url(#linear-gradient-2);}.cls-9{fill:url(#linear-gradient-3);}.cls-10{fill:#fec133;}.cls-11{fill:#e6e8b3;}</style><clipPath id="clip-path" transform="translate(0 -0.01)"><path class="cls-1" d="M79.25,1.76,202.65,0a7.22,7.22,0,0,1,4.95,1.85c5.29,4.77,18.71,17,19.09,19.31.41,2.46,7.94,28.76,9.9,35.61a12,12,0,0,1,.46,3.31V91.37H220.56S222,59.8,198,61.21s-20.26,30.16-20.26,30.16H124.45s5.65-31.57-22.62-31.1-22.14,31.1-22.14,31.1H2.89V73.58a11.8,11.8,0,0,1,2.31-7L15.14,53.2,49.53,31.06,69.22,6.65A13.08,13.08,0,0,1,79.25,1.76Z"/></clipPath><linearGradient id="linear-gradient" x1="158.8" y1="21.52" x2="216.09" y2="21.52" gradientUnits="userSpaceOnUse"><stop offset="0" stop-color="#6eccda"/><stop offset="1" stop-color="#f5ecbd"/></linearGradient><linearGradient id="linear-gradient-2" x1="110.74" y1="21.52" x2="156.14" y2="21.52" xlink:href="#linear-gradient"/><linearGradient id="linear-gradient-3" x1="57.11" y1="21.52" x2="115.45" y2="21.52" xlink:href="#linear-gradient"/></defs><g id="Layer_2" data-name="Layer 2"><g id="Layer_1-2" data-name="Layer 1"><rect class="cls-2" x="8.78" y="89.71" width="228.28" height="4.48"/><circle class="cls-2" cx="99.3" cy="80.31" r="26.69"/><ellipse class="cls-2" cx="197.89" cy="83" rx="24.26" ry="23.44"/><ellipse class="cls-2" cx="151.32" cy="91.83" rx="17.88" ry="14.61"/><circle class="cls-2" cx="51.18" cy="90.89" r="16.73"/><circle class="cls-3" cx="195.03" cy="84.88" r="19.2"/><circle class="cls-4" cx="196.5" cy="84.88" r="10.72"/><circle class="cls-3" cx="97.18" cy="84.88" r="19.2"/><circle class="cls-4" cx="98.65" cy="84.88" r="10.72"/><g class="cls-5"><path class="cls-6" d="M83.24,1.7,202.17,0A8.54,8.54,0,0,1,208,2.19c5.52,5,18.34,16.76,18.71,19,.42,2.52,8.31,30.08,10,36.08a8.43,8.43,0,0,1,.33,2.34V82.87a8.5,8.5,0,0,1-8.49,8.5h-4.22a3.84,3.84,0,0,1-3.84-3.61C220,79.52,216.91,60.1,198,61.21c-15.84.93-19.6,13.73-20.33,22.35a8.5,8.5,0,0,1-8.46,7.81H124.45s5.65-31.57-22.62-31.1c-18.72.31-22.36,13.85-22.68,23a8.57,8.57,0,0,1-8.48,8.14H11.38a8.5,8.5,0,0,1-8.49-8.5V76.39a20.25,20.25,0,0,1,4-12.07l4.55-6.13a34.22,34.22,0,0,1,8.94-8.36l28-18a8.45,8.45,0,0,0,2-1.81L66.71,9.75A21.63,21.63,0,0,1,83.24,1.7Z" transform="translate(0 -0.01)"/><path class="cls-7" d="M161.36,6.79h40.42a5.87,5.87,0,0,1,3.66,1.29l8.28,6.69a6.38,6.38,0,0,1,2.37,5v2.41a5.12,5.12,0,0,1-2.35,4.3l-13.67,8.74a6.71,6.71,0,0,1-3.62,1.06H169.91a6.22,6.22,0,0,1-6.06-4.81l-5-21.5A2.57,2.57,0,0,1,161.36,6.79Z" transform="translate(0 -0.01)"/><path class="cls-8" d="M151.48,9.91l4.58,22a3.58,3.58,0,0,1-3.5,4.31H112.41a1.66,1.66,0,0,1-1.29-2.72L130.88,9.31a6.82,6.82,0,0,1,5.29-2.52h11.48A3.92,3.92,0,0,1,151.48,9.91Z" transform="translate(0 -0.01)"/><path class="cls-9" d="M115.12,9.81,99.07,33.69a5.78,5.78,0,0,1-4.79,2.55h-36a1.14,1.14,0,0,1-.89-1.85L77.77,8.62a4.82,4.82,0,0,1,3.78-1.83h32A1.94,1.94,0,0,1,115.12,9.81Z" transform="translate(0 -0.01)"/><path class="cls-10" d="M77.09,53H231.43a5.63,5.63,0,0,1,5.63,5.63V78.9a5.63,5.63,0,0,1-5.63,5.63H77.09A15.78,15.78,0,0,1,61.31,68.74v0A15.78,15.78,0,0,1,77.09,53Z"/></g><rect class="cls-3" x="227.63" y="69.45" width="10.6" height="16.96" rx="1.12"/><rect class="cls-2" x="138.7" y="42" width="14.66" height="5.48" rx="0.99"/><rect class="cls-2" x="199.57" y="42" width="14.66" height="5.48" rx="0.99"/><rect class="cls-2" x="17.08" y="63.74" width="24.91" height="5.83" rx="0.46"/><rect class="cls-10" x="11.57" y="72.22" width="32.86" height="13.34" rx="1.32"/><rect class="cls-3" y="81.58" width="64.49" height="10.25" rx="1.05"/><rect class="cls-11" x="43.39" y="62.88" width="7.79" height="7.79" rx="3.9"/><rect class="cls-11" x="10.08" y="63.74" width="5.83" height="5.83" rx="2.92"/></g></g></svg>