<svg xmlns="http://www.w3.org/2000/svg" viewBox="0 0 44.81 37.55"><defs><style>.cls-1{fill:#94a3c3;}.cls-1,.cls-2,.cls-5,.cls-7{stroke:#41406b;stroke-miterlimit:10;}.cls-1,.cls-2,.cls-5{stroke-width:0.75px;}.cls-2{fill:#d9dff1;}.cls-3{fill:#41406b;}.cls-4,.cls-5,.cls-7{fill:none;}.cls-6{fill:#fff;}</style></defs><g id="Layer_2" data-name="Layer 2"><g id="Layer_1-2" data-name="Layer 1"><path class="cls-1" d="M35.38,1.44a4.09,4.09,0,0,0-.47-.23c-.09,0-.17-.1-.26-.13h0A8.74,8.74,0,0,0,31.25.38H9A8.65,8.65,0,0,0,.38,9V25.86A8.65,8.65,0,0,0,9,34.48H39.64a4.46,4.46,0,0,0,4.45-4.12C44.69,23.14,45.69,6.24,35.38,1.44Z"/><path class="cls-2" d="M44.41,24.75H11.48a2.83,2.83,0,0,1-2.81-2.81V16.38a2.83,2.83,0,0,1,2.81-2.81H43.56"/><rect class="cls-3" x="7.56" y="6.45" width="6.08" height="2.94" rx="0.96"/><rect class="cls-3" x="17.66" y="6.45" width="6.08" height="2.94" rx="0.96"/><rect class="cls-3" x="28.24" y="6.45" width="6.08" height="2.94" rx="0.96"/><circle class="cls-4" cx="9.41" cy="33.26" r="3.87"/><circle class="cls-3" cx="9.83" cy="32.83" r="4.3"/><circle class="cls-3" cx="33.61" cy="33.26" r="4.3"/><path class="cls-5" d="M35.38,1.44a4.09,4.09,0,0,0-.47-.23c-.09,0-.17-.1-.26-.13h0A8.74,8.74,0,0,0,31.25.38H9A8.65,8.65,0,0,0,.38,9V25.86A8.65,8.65,0,0,0,9,34.48H39.64a4.46,4.46,0,0,0,4.45-4.12C44.69,23.14,45.69,6.24,35.38,1.44Z"/><circle class="cls-6" cx="9.87" cy="33.27" r="1.49"/><circle class="cls-6" cx="33.61" cy="33.27" r="1.49"/><line class="cls-7" x1="17.66" y1="13.57" x2="17.66" y2="24.75"/><line class="cls-7" x1="33.61" y1="13.59" x2="33.61" y2="24.76"/></g></g></svg>