<svg xmlns="http://www.w3.org/2000/svg" viewBox="0 0 42.04 48.55"><defs><style>.cls-1{fill:#94a3c3;}.cls-1,.cls-2,.cls-3,.cls-5{stroke:#41406b;stroke-miterlimit:10;}.cls-1,.cls-2{stroke-width:0.75px;}.cls-2,.cls-3{fill:#d9dff1;}.cls-4{fill:#41406b;}.cls-5{fill:#c3cae7;}</style></defs><g id="Layer_2" data-name="Layer 2"><g id="Profile_Page" data-name="Profile Page"><rect class="cls-1" x="1.84" y="26" width="38.16" height="22.18" rx="4.38"/><path class="cls-2" d="M40.5,35.25h-39A1.17,1.17,0,0,0,.38,36.42v1.33a1.17,1.17,0,0,0,1.16,1.17H16.1a.43.43,0,0,0,0,0A1.89,1.89,0,0,0,18,40.85h6A1.89,1.89,0,0,0,25.82,39a.43.43,0,0,0,0,0H40.5a1.18,1.18,0,0,0,1.17-1.17V36.42A1.18,1.18,0,0,0,40.5,35.25Z"/><path class="cls-3" d="M20.62,26H15.09A10.05,10.05,0,0,1,9.7,16.21c.4-7.2,3.06-10.46,10-8.66a10.7,10.7,0,0,0,4.66-.07c2.66-.6,7.39-.13,8.06,5s.53,11.32-5,13.52Z"/><path class="cls-4" d="M20.62,7.7C20.15,7,19.49,1.15,20,.36s1.46,0,1.46,0-.6,5.9.8,7.34Z"/><path class="cls-5" d="M21.5,7a.8.8,0,0,1-1-.85,4.48,4.48,0,0,1,3.08-3.81C27.3.92,26.67,3.6,24.76,5.22A6.88,6.88,0,0,1,21.5,7Z"/></g></g></svg>