<svg xmlns="http://www.w3.org/2000/svg" viewBox="0 0 25.34 57.34"><defs><style>.cls-1{fill:#6c6887;}.cls-2{fill:#d9dff1;}.cls-2,.cls-4{stroke:#41406b;stroke-miterlimit:10;stroke-width:0.75px;}.cls-3{fill:#41406b;}.cls-4{fill:#94a3c3;}.cls-5{fill:#f0efef;}</style></defs><g id="Layer_2" data-name="Layer 2"><g id="Profile_Page" data-name="Profile Page"><path class="cls-1" d="M21.06,56.22c0,.62-3.75,1.12-8.39,1.12s-8.39-.5-8.39-1.12S8,55.1,12.67,55.1,21.06,55.6,21.06,56.22Z"/><path class="cls-2" d="M12,38.51H9.57S-2.29,14.1.93,10.34C5.08,5.48,10.47,19.34,12,38.51Z"/><path class="cls-3" d="M11.21,38.51h-.39L3.28,13.8a.19.19,0,0,1,.36-.11Z"/><path class="cls-2" d="M13.38,38.51h2.39S27.63,14.1,24.41,10.34C20.26,5.48,14.87,19.34,13.38,38.51Z"/><path class="cls-3" d="M14.13,38.51h.39L22.06,13.8a.18.18,0,0,0-.12-.23.19.19,0,0,0-.24.12Z"/><path class="cls-2" d="M14.08,38.51H12C7.28,16.07,9.15-2.72,13.9.8S14.08,38.51,14.08,38.51Z"/><path class="cls-3" d="M12.84,5.37l-.25,33.14h-.37l.25-33.14a.19.19,0,1,1,.37,0Z"/><path class="cls-4" d="M21.9,38.51l-.35,1.29-.07.25-.31,1.17-.07.25L18,53.1l-.07.25-.32,1.17-.06.25L17.1,56.3a33.27,33.27,0,0,1-8.86,0l-.41-1.53-.07-.25-.32-1.17-.06-.25L4.24,41.47l-.07-.25-.31-1.17-.07-.25-.35-1.29Z"/><polygon class="cls-5" points="21.55 39.8 21.48 40.05 3.86 40.05 3.79 39.8 21.55 39.8"/><polygon class="cls-5" points="21.17 41.22 21.1 41.47 4.24 41.47 4.17 41.22 21.17 41.22"/><polygon class="cls-5" points="17.97 53.1 17.9 53.34 7.44 53.34 7.38 53.1 17.97 53.1"/><polygon class="cls-5" points="17.58 54.52 17.52 54.77 7.83 54.77 7.76 54.52 17.58 54.52"/></g></g></svg>