<svg xmlns="http://www.w3.org/2000/svg" viewBox="0 0 53.65 34.99"><defs><style>.cls-1{fill:#c5c5d9;}.cls-1,.cls-2,.cls-4,.cls-6{stroke:#41406b;stroke-miterlimit:10;}.cls-2{fill:#94a3c3;stroke-width:0.5px;}.cls-3,.cls-6{fill:#d9dff1;}.cls-4{fill:none;}.cls-4,.cls-6{stroke-width:0.75px;}.cls-5{fill:#fff;}</style></defs><g id="Layer_2" data-name="Layer 2"><g id="Profile_Page" data-name="Profile Page"><ellipse class="cls-1" cx="26.82" cy="29.66" rx="26.32" ry="4.82" transform="translate(-0.29 0.27) rotate(-0.57)"/><path class="cls-2" d="M9.22,29.9c.13.17.27.35.43.53l.3.34a3.58,3.58,0,0,0,1.13,1c.68.19,10.67-5.27,10.67-5.27l11.13-5.9c1.63-.82,7.3-3.93,9.86-5.34a1.55,1.55,0,0,0,.66-2l-.25-.52c-.89-1.87-2.21-4.62-2.7-5.49a17.74,17.74,0,0,0-3.35-3.4S38.1.41,36.19.4s-2.26.93-2.26.93-2.54,3.78-4.46,4.51-4.71-.14-6-1.22S20.3,5.81,20.81,7.18a1.86,1.86,0,0,1-.14,1.54C20.41,9.29,20,10,19.54,11c-.07.16-.14.32-.21.5s-.19.51-.28.79a11.69,11.69,0,0,1-.65,1.55c0,.11-.11.22-.17.33-.29.57-.62,1.14-1,1.71-1.24,2-2.73,3.93-3.55,5.21-1.06,1.65-3.57,5.81-4.58,7.48A1.21,1.21,0,0,0,9.22,29.9Z"/><path class="cls-3" d="M10,30.77a3.58,3.58,0,0,0,1.13,1c.68.19,10.67-5.27,10.67-5.27l11.13-5.9c1.63-.82,7.3-3.93,9.86-5.34a1.55,1.55,0,0,0,.66-2l-.25-.52C33,18.89,21.75,24.9,10,30.77Z"/><path class="cls-4" d="M9.22,29.9c.13.17.27.35.43.53l.3.34a3.58,3.58,0,0,0,1.13,1c.68.19,10.67-5.27,10.67-5.27l11.13-5.9c1.63-.82,7.3-3.93,9.86-5.34a1.55,1.55,0,0,0,.66-2l-.25-.52c-.89-1.87-2.21-4.62-2.7-5.49a17.74,17.74,0,0,0-3.35-3.4S38.1.41,36.19.4s-2.26.93-2.26.93-2.54,3.78-4.46,4.51-4.71-.14-6-1.22S20.3,5.81,20.81,7.18a1.86,1.86,0,0,1-.14,1.54C20.41,9.29,20,10,19.54,11c-.07.16-.14.32-.21.5s-.19.51-.28.79a11.69,11.69,0,0,1-.65,1.55c0,.11-.11.22-.17.33-.29.57-.62,1.14-1,1.71-1.24,2-2.73,3.93-3.55,5.21-1.06,1.65-3.57,5.81-4.58,7.48A1.21,1.21,0,0,0,9.22,29.9Z"/><path class="cls-5" d="M24,16.43a.64.64,0,0,0,.43-.29.67.67,0,0,0-.2-.91,10.12,10.12,0,0,0-4.71-1.57,4.54,4.54,0,0,0-4,2.37.66.66,0,1,0,1.19.57A3.23,3.23,0,0,1,19.5,15a9.06,9.06,0,0,1,4,1.36A.64.64,0,0,0,24,16.43Z"/><path class="cls-5" d="M25.62,13.86a.67.67,0,0,0,.42-.3.65.65,0,0,0-.2-.91,10.26,10.26,0,0,0-4.7-1.57,4.54,4.54,0,0,0-4,2.37A.66.66,0,0,0,18.3,14a3.25,3.25,0,0,1,2.86-1.62,9,9,0,0,1,4,1.36A.66.66,0,0,0,25.62,13.86Z"/><path class="cls-5" d="M26.49,11.3a.69.69,0,0,0,.43-.3.65.65,0,0,0-.2-.91A10.32,10.32,0,0,0,22,8.52a4.58,4.58,0,0,0-4,2.37.66.66,0,0,0,1.19.57A3.25,3.25,0,0,1,22,9.84a9,9,0,0,1,4,1.36A.64.64,0,0,0,26.49,11.3Z"/><path class="cls-6" d="M20.75,7s9,5.66,16.35-3.18c0,0,1.33-2.94-.91-3.38s-3.34,4.34-6.92,5.51a6,6,0,0,1-6-1.42S21,3.69,20.75,7Z"/></g></g></svg>